<svg width="38" height="32" viewBox="0 0 38 32" fill="none" xmlns="http://www.w3.org/2000/svg">
<path d="M29.3125 19.0624L32.8125 15.5624M32.8125 15.5624L36.3125 12.0624M32.8125 15.5624L29.3125 12.0624M32.8125 15.5624L36.3125 19.0624" stroke="#CD2600" stroke-width="2.625" stroke-linecap="round" stroke-linejoin="round"/>
<path d="M1.3125 18.8122V12.3127C1.3125 11.3845 1.68125 10.4942 2.33763 9.83784C2.994 9.18146 3.88424 8.81271 4.8125 8.81271H9.8875C10.2297 8.81263 10.5643 8.71224 10.85 8.52396L21.35 1.60096C21.6138 1.42722 21.9197 1.32813 22.2353 1.3142C22.5509 1.30027 22.8644 1.37202 23.1425 1.52184C23.4206 1.67165 23.6529 1.89395 23.8149 2.16514C23.9769 2.43634 24.0624 2.74632 24.0625 3.06221V28.0627C24.0624 28.3786 23.9769 28.6886 23.8149 28.9598C23.6529 29.231 23.4206 29.4533 23.1425 29.6031C22.8644 29.7529 22.5509 29.8247 22.2353 29.8107C21.9197 29.7968 21.6138 29.6977 21.35 29.524L10.85 22.601C10.5643 22.4127 10.2297 22.3123 9.8875 22.3122H4.8125C3.88424 22.3122 2.994 21.9435 2.33763 21.2871C1.68125 20.6307 1.3125 19.7405 1.3125 18.8122Z" stroke="#CD2600" stroke-width="2.625"/>
</svg>
