<svg width="38" height="33" viewBox="0 0 38 33" fill="none" xmlns="http://www.w3.org/2000/svg">
<path d="M33.6184 8.09204C33.6184 8.09204 36.3816 10.8552 36.3816 15.4605C36.3816 20.0657 33.6184 22.8289 33.6184 22.8289" stroke="#CD2600" stroke-width="2.76316" stroke-linecap="round" stroke-linejoin="round"/>
<path d="M1.38159 19.8023V12.9608C1.38159 11.9836 1.76975 11.0466 2.46067 10.3556C3.1516 9.66471 4.08869 9.27655 5.0658 9.27655H10.4079C10.7681 9.27646 11.1203 9.17079 11.4211 8.97261L22.4737 1.68524C22.7514 1.50235 23.0734 1.39805 23.4056 1.38338C23.7378 1.36872 24.0678 1.44424 24.3605 1.60194C24.6532 1.75965 24.8978 1.99364 25.0683 2.27911C25.2388 2.56458 25.3289 2.89088 25.329 3.22339V29.5397C25.3289 29.8722 25.2388 30.1985 25.0683 30.484C24.8978 30.7695 24.6532 31.0035 24.3605 31.1612C24.0678 31.3189 23.7378 31.3944 23.4056 31.3797C23.0734 31.3651 22.7514 31.2608 22.4737 31.0779L11.4211 23.7905C11.1203 23.5923 10.7681 23.4866 10.4079 23.4866H5.0658C4.08869 23.4866 3.1516 23.0984 2.46067 22.4075C1.76975 21.7165 1.38159 20.7795 1.38159 19.8023Z" stroke="#CD2600" stroke-width="2.76316"/>
</svg>
